#!OML:ASF H:\ManfredETheater\Project 1\Capture day 1\Session 1\subject.ASF
:FULLY-SPECIFIED
:DEGREES
124
root -3.24203 11.8619 30.0448 -46.9602 66.7689 -47.4126
lowerback 44.0266 -1.32053 5.16568
upperback 12.2268 3.03159 7.48865
thorax -7.13227 1.83762 4.06088
lowerneck -1.87962 -14.6972 -18.3494
upperneck 5.52571 -20.4221 18.4521
head 5.81937 -9.99801 6.92604
rclavicle -4.4329e-014 -2.36802e-014
rhumerus -1.94258 -22.6639 -27.6276
rradius 56.9235
rwrist -7.80968
rhand -26.8596 -3.4088
rfingers 7.12502
rthumb -0.284472 -33.3884
lclavicle -4.4329e-014 -2.36802e-014
lhumerus -58.766 32.2753 50.656
lradius 64.663
lwrist 5.87904
lhand -36.1207 6.6708
lfingers 7.12502
lthumb -9.22626 36.4489
rfemur -42.13 -18.0251 2.22985
rtibia 66.2707
rfoot -0.35978 -7.20246
rtoes -23.1725
lfemur -74.7396 0.410912 -8.29929
ltibia 100.445
lfoot -18.9257 -20.1409
ltoes 22.596
125
root -3.25072 11.8472 30.3133 -46.365 67.7119 -46.6278
lowerback 44.2242 -1.23206 4.74154
upperback 12.3014 2.972 7.33629
thorax -7.11423 1.81656 4.13627
lowerneck -1.44204 -14.8838 -18.5697
upperneck 4.71037 -20.7139 19.07
head 5.65057 -10.1694 7.14566
rclavicle 6.41826e-014 1.30117e-013
rhumerus -1.87032 -22.2529 -29.1983
rradius 55.8702
rwrist -7.78254
rhand -26.847 -3.57931
rfingers 7.12502
rthumb -0.27236 -33.5589
lclavicle 6.41826e-014 1.30117e-013
lhumerus -58.7123 32.5915 51.133
lradius 64.7105
lwrist 5.90018
lhand -36.9443 7.55491
lfingers 7.12502
lthumb -10.0209 37.2963
rfemur -43.2088 -18.8732 1.98844
rtibia 68.8707
rfoot -1.51233 -7.09894
rtoes -22.513
lfemur -74.5801 0.228421 -8.03394
ltibia 100.777
lfoot -19.771 -20.3734
ltoes 21.353
126
root -3.25582 11.844 30.5722 -45.8069 68.5023 -45.9187
lowerback 44.3658 -1.14014 4.44478
upperback 12.3838 2.96651 7.20668
thorax -7.06762 1.8223 4.14931
lowerneck -1.01005 -15.0833 -18.7459
upperneck 3.98367 -21.0262 19.6543
head 5.50917 -10.3516 7.34364
rclavicle -3.52346e-014 2.41026e-014
rhumerus -2.01024 -21.7931 -30.7043
rradius 54.8377
rwrist -7.82322
rhand -26.9174 -3.9181
rfingers 7.12502
rthumb -0.340298 -33.8976
lclavicle -3.52346e-014 2.41026e-014
lhumerus -58.4466 32.814 51.8436
lradius 64.6059
lwrist 6.12921
lhand -37.5798 8.30892
lfingers 7.12502
lthumb -10.634 38.0198
rfemur -44.0139 -19.4808 1.87557
rtibia 71.0569
rfoot -2.82488 -7.04941
rtoes -22.5078
lfemur -74.3435 0.132698 -7.63325
ltibia 100.991
lfoot -20.5916 -20.6425
ltoes 20.0625
127
root -3.25831 11.8494 30.8232 -45.3683 69.1625 -45.3944
lowerback 44.4288 -1.04808 4.27798
upperback 12.4606 3.01319 7.11655
thorax -7.00375 1.85304 4.1172
lowerneck -0.59735 -15.2953 -18.878
upperneck 3.35746 -21.3571 20.1919
head 5.39826 -10.5425 7.51471
rclavicle 6.10269e-014 3.77691e-014
rhumerus -2.37852 -21.295 -32.1445
rradius 53.842
rwrist -7.909
rhand -27.0148 -4.45279
rfingers 7.12502
rthumb -0.434367 -34.4321
lclavicle 6.10269e-014 3.77691e-014
lhumerus -57.9668 32.9228 52.7722
lradius 64.3415
lwrist 6.50996
lhand -37.9118 8.77977
lfingers 7.12502
lthumb -10.9542 38.474
rfemur -44.5932 -19.9176 1.90908
rtibia 72.9028
rfoot -4.17197 -7.05712
rtoes -22.6145
lfemur -74.0906 0.100375 -7.08436
ltibia 101.103
lfoot -21.3696 -20.9644
ltoes 18.7777
128
root -3.25894 11.862 31.0656 -45.0198 69.7346 -45.0373
lowerback 44.4074 -0.948773 4.21283
upperback 12.52 3.10928 7.07551
thorax -6.93743 1.90629 4.0657
lowerneck -0.215513 -15.5226 -18.9648
upperneck 2.82138 -21.7046 20.6522
head 5.3112 -10.7406 7.64849
rclavicle -3.77691e-015 4.08502e-014
rhumerus -2.9664 -20.7787 -33.501
rradius 52.8933
rwrist -8.01942
rhand -27.0613 -5.16715
rfingers 7.12502
rthumb -0.479278 -35.1464
lclavicle -3.77691e-015 4.08502e-014
lhumerus -57.2968 32.9282 53.9023
lradius 63.9261
lwrist 6.93711
lhand -37.8966 8.90631
lfingers 7.12502
lthumb -10.9396 38.6013
rfemur -45.0603 -20.2748 2.0767
rtibia 74.5141
rfoot -5.49145 -7.14852
rtoes -22.7696
lfemur -73.8519 0.092063 -6.43928
ltibia 101.118
lfoot -22.1113 -21.2923
ltoes 17.4487
129
root -3.25743 11.8819 31.2977 -44.7015 70.2595 -44.7812
lowerback 44.3131 -0.85297 4.22907
upperback 12.5513 3.23217 7.07091
thorax -6.88264 1.97098 4.00092
lowerneck 0.12964 -15.7541 -19.0244
upperneck 2.35952 -22.0507 21.027
head 5.2404 -10.9367 7.74767
rclavicle 1.59028e-014 -4.37326e-015
rhumerus -3.72767 -20.2464 -34.7937
rradius 51.9897
rwrist -8.17351
rhand -27.0189 -5.98409
rfingers 7.12502
rthumb -0.438386 -35.9634
lclavicle 1.59028e-014 -4.37326e-015
lhumerus -56.5038 32.8417 55.1748
lradius 63.3899
lwrist 7.30344
lhand -37.5602 8.69446
lfingers 7.12502
lthumb -10.615 38.4064
rfemur -45.5062 -20.631 2.34908
rtibia 75.9657
rfoot -6.72827 -7.33423
rtoes -22.8991
lfemur -73.6229 0.0606569 -5.76004
ltibia 101.036
lfoot -22.8013 -21.5827
ltoes 16.1528
130
root -3.25436 11.9085 31.5189 -44.3119 70.7808 -44.5421
lowerback 44.1182 -0.751256 4.27789
upperback 12.5541 3.36958 7.10827
thorax -6.83511 2.04032 3.95891
lowerneck 0.445587 -15.9845 -19.0747
upperneck 1.93058 -22.3839 21.307
head 5.16958 -11.1261 7.81528
rclavicle -6.71892e-014 -1.06946e-013
rhumerus -4.59841 -19.7228 -36.0322
rradius 51.1219
rwrist -8.37495
rhand -26.8713 -6.8203
rfingers 7.12502
rthumb -0.295831 -36.7998
lclavicle -6.71892e-014 -1.06946e-013
lhumerus -55.6507 32.6958 56.5579
lradius 62.7692
lwrist 7.48971
lhand -36.9082 8.14801
lfingers 7.12502
lthumb -9.98608 37.8911
rfemur -46.0069 -21.0296 2.68419
rtibia 77.2905
rfoot -7.86436 -7.57778
rtoes -22.8009
lfemur -73.4347 -0.00979977 -5.11174
ltibia 100.856
lfoot -23.4298 -21.8038
ltoes 14.8726
131
root -3.24894 11.9435 31.7276 -43.7819 71.325 -44.2043
lowerback 43.8783 -0.650653 4.33177
upperback 12.5283 3.50525 7.17281
thorax -6.80917 2.1066 3.94434
lowerneck 0.753665 -16.2038 -19.1398
upperneck 1.49172 -22.6907 21.5125
head 5.08437 -11.3037 7.86614
rclavicle 1.51076e-014 7.55382e-015
rhumerus -5.51786 -19.234 -37.2398
rradius 50.2758
rwrist -8.58445
rhand -26.6083 -7.58632
rfingers 7.12502
rthumb -0.0417575 -37.5661
lclavicle 1.51076e-014 7.55382e-015
lhumerus -54.8052 32.5128 58.0074
lradius 62.105
lwrist 7.40374
lhand -36.0265 7.33632
lfingers 7.12502
lthumb -9.13537 37.1185
rfemur -46.5221 -21.4527 3.00184
rtibia 78.4768
rfoot -8.8853 -7.85276
rtoes -22.5348
lfemur -73.226 -0.154324 -4.55425
ltibia 100.568
lfoot -23.9982 -21.9215
ltoes 13.6112
132
root -3.24208 11.987 31.9243 -43.0458 71.8903 -43.7019
lowerback 43.5991 -0.548584 4.36438
upperback 12.4728 3.62998 7.25626
thorax -6.80778 2.16497 3.96544
lowerneck 1.05434 -16.4047 -19.2281
upperneck 1.03249 -22.9625 21.656
head 4.98212 -11.4651 7.90749
rclavicle 1.15295e-014 4.37326e-015
rhumerus -6.43005 -18.7959 -38.4535
rradius 49.4384
rwrist -8.77352
rhand -26.2627 -8.20627
rfingers 7.12502
rthumb 0.292067 -38.1858
lclavicle 1.15295e-014 4.37326e-015
lhumerus -54.0305 32.3076 59.4738
lradius 61.4369
lwrist 6.99798
lhand -35.0407 6.3511
lfingers 7.12502
lthumb -8.18404 36.1726
rfemur -47.0504 -21.8713 3.28108
rtibia 79.5108
rfoot -9.79389 -8.14652
rtoes -22.1396
lfemur -72.9984 -0.344171 -4.10112
ltibia 100.171
lfoot -24.4903 -21.9623
ltoes 12.4125
133
root -3.23395 12.0391 32.1102 -42.1388 72.4567 -43.0458
lowerback 43.3108 -0.454466 4.37902
upperback 12.3917 3.73621 7.34942
thorax -6.83325 2.21232 4.01365
lowerneck 1.33518 -16.5826 -19.3309
upperneck 0.563299 -23.1941 21.7453
head 4.86675 -11.6062 7.94054
rclavicle -9.93923e-015 -1.01778e-013
rhumerus -7.30361 -18.433 -39.7101
rradius 48.6072
rwrist -8.8826
rhand -25.8586 -8.64972
rfingers 7.12502
rthumb 0.682301 -38.6284
lclavicle -9.93923e-015 -1.01778e-013
lhumerus -53.364 32.0865 60.9141
lradius 60.7926
lwrist 6.27261
lhand -34.0962 5.32922
lfingers 7.12502
lthumb -7.2724 35.1842
rfemur -47.5383 -22.2571 3.52877
rtibia 80.3778
rfoot -10.6161 -8.44441
rtoes -21.6972
lfemur -72.7264 -0.557416 -3.73219
ltibia 99.6689
lfoot -24.9119 -21.9508
ltoes 11.2525
134
root -3.22477 12.0988 32.2866 -41.0621 73.0188 -42.2174
lowerback 43.0366 -0.372274 4.3667
upperback 12.2896 3.81657 7.44009
thorax -6.88587 2.24562 4.08333
lowerneck 1.59876 -16.7358 -19.4289
upperneck 0.0754238 -23.3843 21.7937
head 4.73436 -11.7261 7.96799
rclavicle -4.6118e-014 -7.95139e-016
rhumerus -8.13454 -18.1492 -41.027
rradius 47.7904
rwrist -8.91585
rhand -25.482 -8.88644
rfingers 7.12502
rthumb 1.04602 -38.8636
lclavicle -4.6118e-014 -7.95139e-016
lhumerus -52.8091 31.8438 62.3028
lradius 60.1859
lwrist 5.28809
lhand -33.3653 4.32671
lfingers 7.12502
lthumb -6.56687 34.2049
rfemur -47.9469 -22.6065 3.73039
rtibia 81.0734
rfoot -11.3723 -8.72125
rtoes -21.3123
lfemur -72.3976 -0.777766 -3.44393
ltibia 99.0714
lfoot -25.2531 -21.9224
ltoes 10.1806
135
root -3.215 12.1665 32.4548 -39.8164 73.5689 -41.2113
lowerback 42.7771 -0.300958 4.31899
upperback 12.1726 3.8682 7.52101
thorax -6.95871 2.26394 4.17229
lowerneck 1.83615 -16.8649 -19.5086
upperneck -0.418705 -23.5353 21.8092
head 4.59 -11.8249 7.98932
rclavicle -3.57812e-014 -3.49861e-014
rhumerus -8.9313 -17.9905 -42.4025
rradius 47.0014
rwrist -8.73323
rhand -25.0814 -8.99183
rfingers 7.12502
rthumb 1.43293 -38.9668
lclavicle -3.57812e-014 -3.49861e-014
lhumerus -52.3514 31.5765 63.6228
lradius 59.6202
lwrist 4.13646
lhand -32.8798 3.4139
lfingers 7.12502
lthumb -6.0982 33.3061
rfemur -48.2566 -22.8955 3.8861
rtibia 81.5949
rfoot -12.0775 -8.97521
rtoes -20.9714
lfemur -72.0031 -0.980828 -3.23223
ltibia 98.3791
lfoot -25.5294 -21.8939
ltoes 9.15944
